<svg width="24" height="24" viewBox="0 0 24 24" fill="none" xmlns="http://www.w3.org/2000/svg">
<path d="M8 13.8846C7.79358 13.8846 7.61378 13.808 7.46058 13.6548C7.30738 13.5016 7.23077 13.3218 7.23077 13.1154C7.23077 12.909 7.30738 12.7292 7.46058 12.576C7.61378 12.4228 7.79358 12.3462 8 12.3462C8.20642 12.3462 8.38622 12.4228 8.53942 12.576C8.69262 12.7292 8.76923 12.909 8.76923 13.1154C8.76923 13.3218 8.69262 13.5016 8.53942 13.6548C8.38622 13.808 8.20642 13.8846 8 13.8846ZM12 13.8846C11.7936 13.8846 11.6138 13.808 11.4606 13.6548C11.3074 13.5016 11.2308 13.3218 11.2308 13.1154C11.2308 12.909 11.3074 12.7292 11.4606 12.576C11.6138 12.4228 11.7936 12.3462 12 12.3462C12.2064 12.3462 12.3862 12.4228 12.5394 12.576C12.6926 12.7292 12.7692 12.909 12.7692 13.1154C12.7692 13.3218 12.6926 13.5016 12.5394 13.6548C12.3862 13.808 12.2064 13.8846 12 13.8846ZM16 13.8846C15.7936 13.8846 15.6138 13.808 15.4606 13.6548C15.3074 13.5016 15.2308 13.3218 15.2308 13.1154C15.2308 12.909 15.3074 12.7292 15.4606 12.576C15.6138 12.4228 15.7936 12.3462 16 12.3462C16.2064 12.3462 16.3862 12.4228 16.5394 12.576C16.6926 12.7292 16.7692 12.909 16.7692 13.1154C16.7692 13.3218 16.6926 13.5016 16.5394 13.6548C16.3862 13.808 16.2064 13.8846 16 13.8846ZM5.61538 21C5.15513 21 4.77083 20.8458 4.4625 20.5375C4.15417 20.2292 4 19.8449 4 19.3846V6.61538C4 6.15513 4.15417 5.77083 4.4625 5.4625C4.77083 5.15417 5.15513 5 5.61538 5H7.3846V3.3077C7.3846 3.15257 7.43557 3.02403 7.5375 2.9221C7.63942 2.82018 7.76794 2.76923 7.92308 2.76923C8.07821 2.76923 8.20673 2.82018 8.30865 2.9221C8.41057 3.02403 8.46153 3.15257 8.46153 3.3077V5H15.6154V3.26923C15.6154 3.12693 15.6631 3.00802 15.7587 2.9125C15.8542 2.81698 15.9731 2.76923 16.1154 2.76923C16.2577 2.76923 16.3766 2.81698 16.4721 2.9125C16.5676 3.00802 16.6154 3.12693 16.6154 3.26923V5H18.3846C18.8449 5 19.2292 5.15417 19.5375 5.4625C19.8458 5.77083 20 6.15513 20 6.61538V19.3846C20 19.8449 19.8458 20.2292 19.5375 20.5375C19.2292 20.8458 18.8449 21 18.3846 21H5.61538ZM5.61538 20H18.3846C18.5385 20 18.6795 19.9359 18.8077 19.8077C18.9359 19.6795 19 19.5385 19 19.3846V10.6154H5V19.3846C5 19.5385 5.0641 19.6795 5.1923 19.8077C5.32052 19.9359 5.46154 20 5.61538 20ZM5 9.61538H19V6.61538C19 6.46154 18.9359 6.32052 18.8077 6.1923C18.6795 6.0641 18.5385 6 18.3846 6H5.61538C5.46154 6 5.32052 6.0641 5.1923 6.1923C5.0641 6.32052 5 6.46154 5 6.61538V9.61538Z" fill="black"/>
</svg>
