<svg width="24" height="24" viewBox="0 0 24 24" fill="none" xmlns="http://www.w3.org/2000/svg">
<path fill-rule="evenodd" clip-rule="evenodd" d="M12 3.61765C7.37055 3.61765 3.61765 7.37055 3.61765 12C3.61765 16.6294 7.37055 20.3824 12 20.3824C16.6294 20.3824 20.3824 16.6294 20.3824 12C20.3824 7.37055 16.6294 3.61765 12 3.61765ZM2.5 12C2.5 6.75329 6.75329 2.5 12 2.5C17.2467 2.5 21.5 6.75329 21.5 12C21.5 17.2467 17.2467 21.5 12 21.5C6.75329 21.5 2.5 17.2467 2.5 12Z" fill="#171717"/>
<path fill-rule="evenodd" clip-rule="evenodd" d="M12 7.52941C12.3086 7.52941 12.5588 7.77961 12.5588 8.08823V13.1176C12.5588 13.4263 12.3086 13.6765 12 13.6765C11.6914 13.6765 11.4412 13.4263 11.4412 13.1176V8.08823C11.4412 7.77961 11.6914 7.52941 12 7.52941Z" fill="#171717"/>
<path d="M12.5588 15.9118C12.5588 16.2204 12.3086 16.4706 12 16.4706C11.6914 16.4706 11.4412 16.2204 11.4412 15.9118C11.4412 15.6031 11.6914 15.3529 12 15.3529C12.3086 15.3529 12.5588 15.6031 12.5588 15.9118Z" fill="#171717"/>
</svg>
