<svg width="24" height="24" viewBox="0 0 24 24" fill="none" xmlns="http://www.w3.org/2000/svg">
<path fill-rule="evenodd" clip-rule="evenodd" d="M12 3.5C9.74566 3.5 7.58365 4.39553 5.98959 5.98959C4.39553 7.58365 3.5 9.74566 3.5 12C3.5 13.1162 3.71986 14.2215 4.14702 15.2528C4.57419 16.2841 5.20029 17.2211 5.98959 18.0104C6.77889 18.7997 7.71592 19.4258 8.74719 19.853C9.77846 20.2801 10.8838 20.5 12 20.5C13.1162 20.5 14.2215 20.2801 15.2528 19.853C16.2841 19.4258 17.2211 18.7997 18.0104 18.0104C18.7997 17.2211 19.4258 16.2841 19.853 15.2528C20.2801 14.2215 20.5 13.1162 20.5 12C20.5 9.74566 19.6045 7.58365 18.0104 5.98959C16.4163 4.39553 14.2543 3.5 12 3.5ZM5.28249 5.28249C7.06408 3.50089 9.48044 2.5 12 2.5C14.5196 2.5 16.9359 3.50089 18.7175 5.28249C20.4991 7.06408 21.5 9.48044 21.5 12C21.5 13.2476 21.2543 14.4829 20.7769 15.6355C20.2994 16.7881 19.5997 17.8354 18.7175 18.7175C17.8354 19.5997 16.7881 20.2994 15.6355 20.7769C14.4829 21.2543 13.2476 21.5 12 21.5C10.7524 21.5 9.5171 21.2543 8.36451 20.7769C7.21191 20.2994 6.16464 19.5997 5.28249 18.7175C4.40033 17.8354 3.70056 16.7881 3.22314 15.6355C2.74572 14.4829 2.5 13.2476 2.5 12C2.5 9.48044 3.50089 7.06408 5.28249 5.28249ZM9.64645 9.64645C9.84171 9.45118 10.1583 9.45118 10.3536 9.64645L12 11.2929L13.6464 9.64645C13.8417 9.45118 14.1583 9.45118 14.3536 9.64645C14.5488 9.84171 14.5488 10.1583 14.3536 10.3536L12.7071 12L14.3536 13.6464C14.5488 13.8417 14.5488 14.1583 14.3536 14.3536C14.1583 14.5488 13.8417 14.5488 13.6464 14.3536L12 12.7071L10.3536 14.3536C10.1583 14.5488 9.84171 14.5488 9.64645 14.3536C9.45118 14.1583 9.45118 13.8417 9.64645 13.6464L11.2929 12L9.64645 10.3536C9.45118 10.1583 9.45118 9.84171 9.64645 9.64645Z" fill="#171717"/>
</svg>
