<svg width="24" height="24" viewBox="0 0 24 24" fill="none" xmlns="http://www.w3.org/2000/svg">
<path d="M12 2.5C10.1211 2.5 8.28435 3.05716 6.72208 4.10104C5.15982 5.14491 3.94218 6.62861 3.22315 8.36451C2.50412 10.1004 2.31598 12.0105 2.68254 13.8534C3.0491 15.6962 3.95389 17.3889 5.28249 18.7175C6.61109 20.0461 8.30382 20.9509 10.1466 21.3175C11.9895 21.684 13.8996 21.4959 15.6355 20.7769C17.3714 20.0578 18.8551 18.8402 19.899 17.2779C20.9428 15.7156 21.5 13.8789 21.5 12C21.5 9.48044 20.4991 7.06408 18.7175 5.28248C16.9359 3.50089 14.5196 2.5 12 2.5ZM12 20.55C10.309 20.55 8.65592 20.0485 7.24988 19.1091C5.84384 18.1696 4.74796 16.8342 4.10083 15.2719C3.4537 13.7096 3.28439 11.9905 3.61429 10.332C3.94419 8.67344 4.7585 7.14997 5.95424 5.95424C7.14998 4.7585 8.67344 3.94419 10.332 3.61429C11.9905 3.28438 13.7096 3.4537 15.2719 4.10083C16.8343 4.74796 18.1696 5.84383 19.1091 7.24987C20.0485 8.65591 20.55 10.309 20.55 12C20.55 14.2676 19.6492 16.4423 18.0458 18.0458C16.4423 19.6492 14.2676 20.55 12 20.55V20.55Z" fill="#171717"/>
<path d="M14.0618 10.7175L12.0193 12.7505L9.97684 10.7175C9.88866 10.6293 9.76905 10.5798 9.64434 10.5798C9.51963 10.5798 9.40003 10.6293 9.31184 10.7175C9.22366 10.8057 9.17412 10.9253 9.17412 11.05C9.17412 11.1747 9.22366 11.2943 9.31184 11.3825L11.6868 13.7575C11.7293 13.8031 11.7808 13.8394 11.838 13.8639C11.8953 13.8884 11.957 13.9007 12.0193 13.9C12.0815 13.8996 12.1429 13.8868 12.2 13.8623C12.2571 13.8379 12.3087 13.8022 12.3518 13.7575L14.7268 11.3825C14.815 11.2943 14.8646 11.1747 14.8646 11.05C14.8646 10.9253 14.815 10.8057 14.7268 10.7175C14.6832 10.6738 14.6313 10.6392 14.5743 10.6155C14.5172 10.5919 14.4561 10.5798 14.3943 10.5798C14.2696 10.5798 14.15 10.6293 14.0618 10.7175V10.7175Z" fill="#171717"/>
</svg>
