<svg width="24" height="24" viewBox="0 0 24 24" fill="none" xmlns="http://www.w3.org/2000/svg">
<path fill-rule="evenodd" clip-rule="evenodd" d="M10.25 4.5C9.92104 4.5 9.60394 4.63268 9.36889 4.87146C9.13358 5.1105 9 5.43637 9 5.77778V14.6667C9 15.0081 9.13358 15.3339 9.36889 15.573C9.60394 15.8118 9.92104 15.9444 10.25 15.9444H17.25C17.579 15.9444 17.8961 15.8118 18.1311 15.573C18.3664 15.3339 18.5 15.0081 18.5 14.6667V8.81255C18.5 8.81251 18.5 8.81258 18.5 8.81255C18.5 8.70694 18.4585 8.60712 18.3874 8.53481L14.525 4.6112C14.4541 4.53914 14.3596 4.50005 14.2628 4.5C14.2627 4.5 14.2628 4.5 14.2628 4.5H10.25ZM8.65624 4.16994C9.07757 3.74192 9.6507 3.5 10.25 3.5H14.2628C14.63 3.50008 14.9806 3.6484 15.2378 3.90974L19.0999 7.83319C19.3569 8.09418 19.4999 8.44653 19.5 8.81234V14.6667C19.5 15.2683 19.2648 15.8468 18.8438 16.2745C18.4224 16.7025 17.8493 16.9444 17.25 16.9444H16V18.2222C16 18.8238 15.7648 19.4023 15.3438 19.8301C14.9224 20.2581 14.3493 20.5 13.75 20.5H6.75C6.1507 20.5 5.57757 20.2581 5.15624 19.8301C4.73517 19.4023 4.5 18.8238 4.5 18.2222V9.33333C4.5 8.73175 4.73517 8.15325 5.15624 7.7255C5.57757 7.29748 6.1507 7.05556 6.75 7.05556H8V5.77778C8 5.17619 8.23517 4.59769 8.65624 4.16994ZM8 8.05556H6.75C6.42104 8.05556 6.10394 8.18823 5.86889 8.42701C5.63358 8.66606 5.5 8.99193 5.5 9.33333V18.2222C5.5 18.5636 5.63358 18.8895 5.86889 19.1285C6.10394 19.3673 6.42104 19.5 6.75 19.5H13.75C14.079 19.5 14.3961 19.3673 14.6311 19.1285C14.8664 18.8895 15 18.5636 15 18.2222V16.9444H10.25C9.6507 16.9444 9.07757 16.7025 8.65624 16.2745C8.23517 15.8468 8 15.2683 8 14.6667V8.05556Z" fill="#171717"/>
</svg>
