<svg width="24" height="24" viewBox="0 0 24 24" fill="none" xmlns="http://www.w3.org/2000/svg">
<path d="M14.8003 19.9997H9.20031C8.789 20.0052 8.39016 19.8574 8.08017 19.5848C7.77018 19.3121 7.57083 18.9337 7.52031 18.5221L6.25098 6.51268H17.7403L16.4896 18.5221C16.443 18.9371 16.2435 19.3193 15.9306 19.593C15.6177 19.8667 15.2143 20.0118 14.8003 19.9997ZM7.33364 7.45386L8.48164 18.428C8.50689 18.6075 8.59714 18.7713 8.73501 18.8877C8.87287 19.0041 9.04859 19.065 9.22831 19.0586H14.8283C15.0075 19.0629 15.1822 19.0013 15.3196 18.8853C15.457 18.7692 15.5478 18.6066 15.575 18.428L16.667 7.45386H7.33364Z" fill="#171717"/>
<path d="M14.6133 7.45383H9.38663C9.31443 7.45244 9.24345 7.43482 9.17887 7.40226C9.11428 7.36969 9.05771 7.323 9.01329 7.2656C8.97125 7.20825 8.94268 7.14203 8.92975 7.07192C8.91681 7.00181 8.91985 6.92965 8.93863 6.86089L9.59196 4.34795C9.61553 4.24681 9.67296 4.15695 9.75457 4.09352C9.83617 4.03009 9.93696 3.99696 10.04 3.99972H13.96C14.0625 3.99868 14.1625 4.03245 14.2438 4.09561C14.325 4.15877 14.3828 4.24765 14.408 4.34795L15.0613 6.86089C15.0802 6.93022 15.0825 7.00312 15.0679 7.07351C15.0533 7.1439 15.0222 7.20975 14.9773 7.2656C14.9348 7.32279 14.8799 7.36946 14.8168 7.40208C14.7538 7.4347 14.6842 7.45239 14.6133 7.45383ZM9.99329 6.51266H14.0066L13.596 4.94089H10.3946L9.99329 6.51266Z" fill="#171717"/>
<path d="M18.5333 7.45386H5.46667C5.3429 7.45386 5.2242 7.40428 5.13668 7.31602C5.04917 7.22777 5 7.10808 5 6.98327C5 6.85846 5.04917 6.73876 5.13668 6.65051C5.2242 6.56226 5.3429 6.51268 5.46667 6.51268H18.5333C18.6571 6.51268 18.7758 6.56226 18.8633 6.65051C18.9508 6.73876 19 6.85846 19 6.98327C18.9976 7.10732 18.9477 7.22562 18.8607 7.31336C18.7737 7.40109 18.6564 7.45145 18.5333 7.45386Z" fill="#171717"/>
<path d="M10.6932 16.028C10.5695 16.028 10.4508 15.9784 10.3632 15.8902C10.2757 15.8019 10.2266 15.6822 10.2266 15.5574V10.5409C10.2266 10.4161 10.2757 10.2964 10.3632 10.2082C10.4508 10.1199 10.5695 10.0704 10.6932 10.0704C10.817 10.0704 10.9357 10.1199 11.0232 10.2082C11.1107 10.2964 11.1599 10.4161 11.1599 10.5409V15.5574C11.1599 15.6822 11.1107 15.8019 11.0232 15.8902C10.9357 15.9784 10.817 16.028 10.6932 16.028Z" fill="#171717"/>
<path d="M13.3065 16.028C13.1827 16.028 13.064 15.9784 12.9765 15.8902C12.889 15.8019 12.8398 15.6822 12.8398 15.5574V10.5409C12.8398 10.4161 12.889 10.2964 12.9765 10.2082C13.064 10.1199 13.1827 10.0704 13.3065 10.0704C13.4303 10.0704 13.549 10.1199 13.6365 10.2082C13.724 10.2964 13.7732 10.4161 13.7732 10.5409V15.5574C13.7732 15.6822 13.724 15.8019 13.6365 15.8902C13.549 15.9784 13.4303 16.028 13.3065 16.028Z" fill="#171717"/>
</svg>
