<svg width="24" height="24" viewBox="0 0 24 24" fill="none" xmlns="http://www.w3.org/2000/svg">
<path fill-rule="evenodd" clip-rule="evenodd" d="M15.7827 4.94498C15.9154 4.94498 16.0425 4.99766 16.1363 5.09142L18.9011 7.85621C19.0963 8.05147 19.0963 8.36805 18.9011 8.56332L9.36929 18.0951C9.17402 18.2904 8.85744 18.2904 8.66218 18.0951L5.89739 15.3303C5.80362 15.2366 5.75095 15.1094 5.75095 14.9768C5.75095 14.8442 5.80362 14.717 5.89739 14.6232L15.4292 5.09142C15.523 4.99766 15.6501 4.94498 15.7827 4.94498ZM6.95805 14.9768L9.01573 17.0345L17.8404 8.20976L15.7827 6.15208L6.95805 14.9768Z" fill="#171717"/>
<path fill-rule="evenodd" clip-rule="evenodd" d="M17.0328 5.63262C16.6894 5.59754 16.3444 5.68196 16.056 5.87163L15.5065 5.03615C15.9872 4.72003 16.5621 4.57933 17.1344 4.6378C17.7067 4.69626 18.2413 4.95031 18.6481 5.35709C19.0549 5.76386 19.3089 6.29848 19.3674 6.87078C19.4259 7.44307 19.2852 8.01802 18.969 8.49865L18.1335 7.94913C18.3232 7.66075 18.4076 7.31578 18.3726 6.97241C18.3375 6.62903 18.1851 6.30826 17.941 6.06419C17.6969 5.82012 17.3761 5.6677 17.0328 5.63262Z" fill="#171717"/>
<path fill-rule="evenodd" clip-rule="evenodd" d="M5.63193 18.3629L6.72438 15.1446L5.77745 14.8232L4.66745 18.0932L4.66305 18.1067C4.61063 18.277 4.6056 18.4584 4.64853 18.6313C4.69146 18.8042 4.78072 18.9621 4.9067 19.0881C5.03268 19.2141 5.19061 19.3033 5.36353 19.3463C5.53643 19.3892 5.71778 19.3842 5.88806 19.3317L9.18119 18.2175L8.86064 17.2703L5.63193 18.3629Z" fill="#171717"/>
</svg>
