<svg width="24" height="24" viewBox="0 0 24 24" fill="none" xmlns="http://www.w3.org/2000/svg">
<path d="M10 4H5C4.45 4 4 4.45 4 5V10C4 10.55 4.45 11 5 11H10C10.55 11 11 10.55 11 10V5C11 4.45 10.55 4 10 4ZM10 10H5V5H10V10Z" fill="#171717"/>
<path d="M10 13H5C4.45 13 4 13.45 4 14V19C4 19.55 4.45 20 5 20H10C10.55 20 11 19.55 11 19V14C11 13.45 10.55 13 10 13ZM10 19H5V14H10V19Z" fill="#171717"/>
<path d="M19 4H14C13.45 4 13 4.45 13 5V10C13 10.55 13.45 11 14 11H19C19.55 11 20 10.55 20 10V5C20 4.45 19.55 4 19 4ZM19 10H14V5H19V10Z" fill="#171717"/>
<path d="M19 13H14C13.45 13 13 13.45 13 14V19C13 19.55 13.45 20 14 20H19C19.55 20 20 19.55 20 19V14C20 13.45 19.55 13 19 13ZM19 19H14V14H19V19Z" fill="#171717"/>
</svg>
