<svg width="24" height="24" viewBox="0 0 24 24" fill="none" xmlns="http://www.w3.org/2000/svg">
<path fill-rule="evenodd" clip-rule="evenodd" d="M11.0086 3.37922C11.5753 2.87359 12.4247 2.87359 12.9914 3.37922L19.9914 9.62501C20.3161 9.9147 20.5 10.3308 20.5 10.7655V19.4803C20.5 20.3103 19.8376 21 19 21H15C14.1624 21 13.5 20.3103 13.5 19.4803V15.4014C13.5 15.1051 13.267 14.8817 13 14.8817H11C10.733 14.8817 10.5 15.1051 10.5 15.4014V19.4803C10.5 20.3103 9.83759 21 9 21H5C4.16241 21 3.5 20.3103 3.5 19.4803V10.7655C3.5 10.3308 3.68394 9.9147 4.00861 9.62501L11.0086 3.37922ZM12.3256 4.12538C12.1383 3.95821 11.8617 3.95821 11.6744 4.12538L4.67438 10.3712C4.56502 10.4687 4.5 10.6122 4.5 10.7655V19.4803C4.5 19.7766 4.73302 20 5 20H9C9.26698 20 9.5 19.7766 9.5 19.4803V15.4014C9.5 14.5713 10.1624 13.8817 11 13.8817H13C13.8376 13.8817 14.5 14.5713 14.5 15.4014V19.4803C14.5 19.7766 14.733 20 15 20H19C19.267 20 19.5 19.7766 19.5 19.4803V10.7655C19.5 10.6122 19.435 10.4687 19.3256 10.3712L12.3256 4.12538Z" fill="#171717"/>
</svg>
