<svg width="24" height="24" viewBox="0 0 24 24" fill="none" xmlns="http://www.w3.org/2000/svg">
<path fill-rule="evenodd" clip-rule="evenodd" d="M8.5 4C6.567 4 5 5.567 5 7.5C5 9.433 6.567 11 8.5 11C10.433 11 12 9.433 12 7.5C12 5.567 10.433 4 8.5 4ZM4 7.5C4 5.01472 6.01472 3 8.5 3C10.9853 3 13 5.01472 13 7.5C13 9.98528 10.9853 12 8.5 12C6.01472 12 4 9.98528 4 7.5Z" fill="#171717"/>
<path fill-rule="evenodd" clip-rule="evenodd" d="M6.5 16C5.57174 16 4.6815 16.3687 4.02513 17.0251C3.36875 17.6815 3 18.5717 3 19.5V21.5C3 21.7761 2.77614 22 2.5 22C2.22386 22 2 21.7761 2 21.5V19.5C2 18.3065 2.47411 17.1619 3.31802 16.318C4.16193 15.4741 5.30653 15 6.5 15H10.5C11.6935 15 12.8381 15.4741 13.682 16.318C14.5259 17.1619 15 18.3065 15 19.5V21.5C15 21.7761 14.7761 22 14.5 22C14.2239 22 14 21.7761 14 21.5V19.5C14 18.5717 13.6313 17.6815 12.9749 17.0251C12.3185 16.3687 11.4283 16 10.5 16H6.5Z" fill="#171717"/>
<path fill-rule="evenodd" clip-rule="evenodd" d="M15.0156 3.50586C15.0841 3.23835 15.3565 3.07701 15.624 3.14551C16.592 3.39334 17.4499 3.95629 18.0626 4.74561C18.6753 5.53492 19.0078 6.50569 19.0078 7.50488C19.0078 8.50407 18.6753 9.47485 18.0626 10.2642C17.4499 11.0535 16.592 11.6164 15.624 11.8643C15.3565 11.9327 15.0841 11.7714 15.0156 11.5039C14.9471 11.2364 15.1085 10.964 15.376 10.8955C16.1288 10.7027 16.7961 10.2649 17.2727 9.65098C17.7492 9.03708 18.0078 8.28203 18.0078 7.50488C18.0078 6.72773 17.7492 5.97269 17.2727 5.35878C16.7961 4.74487 16.1288 4.30702 15.376 4.11426C15.1085 4.04576 14.9471 3.77337 15.0156 3.50586Z" fill="#171717"/>
<path fill-rule="evenodd" clip-rule="evenodd" d="M17.0159 15.5249C17.0849 15.2575 17.3576 15.0967 17.625 15.1658C18.5867 15.4141 19.4392 15.9735 20.0497 16.757C20.6601 17.5404 20.9943 18.5038 21 19.497L21 19.4999H21V21.4999C21 21.776 20.7761 21.9999 20.5 21.9999C20.2239 21.9999 20 21.776 20 21.4999V19.5014C19.9953 18.7294 19.7354 17.9806 19.2609 17.3716C18.7861 16.7623 18.123 16.3271 17.375 16.134C17.1076 16.065 16.9468 15.7923 17.0159 15.5249Z" fill="#171717"/>
</svg>
