<svg width="24" height="24" viewBox="0 0 24 24" fill="none" xmlns="http://www.w3.org/2000/svg">
<path fill-rule="evenodd" clip-rule="evenodd" d="M7 7.14285C7 6.82726 7.24252 6.57143 7.54168 6.57143H20.4583C20.7575 6.57143 21 6.82726 21 7.14285C21 7.45845 20.7575 7.71428 20.4583 7.71428H7.54168C7.24252 7.71428 7 7.45845 7 7.14285Z" fill="#171717"/>
<path fill-rule="evenodd" clip-rule="evenodd" d="M7 12.2857C7 11.9701 7.24252 11.7143 7.54168 11.7143H20.4583C20.7575 11.7143 21 11.9701 21 12.2857C21 12.6013 20.7575 12.8571 20.4583 12.8571H7.54168C7.24252 12.8571 7 12.6013 7 12.2857Z" fill="#171717"/>
<path fill-rule="evenodd" clip-rule="evenodd" d="M7 16.8571C7 16.5416 7.24252 16.2857 7.54168 16.2857H20.4583C20.7575 16.2857 21 16.5416 21 16.8571C21 17.1727 20.7575 17.4286 20.4583 17.4286H7.54168C7.24252 17.4286 7 17.1727 7 16.8571Z" fill="#171717"/>
<path d="M3.29213 7.95187C3.43215 8.11139 3.61031 8.21995 3.80417 8.26388C3.99804 8.30781 4.19893 8.28514 4.38154 8.19872C4.56416 8.11231 4.72033 7.96602 4.83039 7.77827C4.94044 7.59053 4.99946 7.36974 5 7.14371C5 6.84038 4.89464 6.54947 4.70711 6.33499C4.51957 6.1205 4.26522 6 4 6C3.73478 6 3.48043 6.1205 3.29289 6.33499C3.10536 6.54947 3 6.84038 3 7.14371C3.00146 7.44637 3.1063 7.73639 3.29213 7.95187Z" fill="#171717"/>
<path d="M3.29213 13.0947C3.43215 13.2542 3.61031 13.3628 3.80417 13.4067C3.99804 13.4507 4.19893 13.428 4.38154 13.3416C4.56416 13.2552 4.72033 13.1089 4.83039 12.9211C4.94044 12.7334 4.99946 12.5126 5 12.2866C5 11.9832 4.89464 11.6923 4.70711 11.4778C4.51957 11.2634 4.26522 11.1429 4 11.1429C3.73478 11.1429 3.48043 11.2634 3.29289 11.4778C3.10536 11.6923 3 11.9832 3 12.2866C3.00146 12.5892 3.1063 12.8792 3.29213 13.0947Z" fill="#171717"/>
<path d="M3.29213 17.6662C3.43215 17.8257 3.61031 17.9342 3.80417 17.9782C3.99804 18.0221 4.19893 17.9994 4.38154 17.913C4.56416 17.8266 4.72033 17.6803 4.83039 17.4926C4.94044 17.3048 4.99946 17.084 5 16.858C5 16.5547 4.89464 16.2638 4.70711 16.0493C4.51957 15.8348 4.26522 15.7143 4 15.7143C3.73478 15.7143 3.48043 15.8348 3.29289 16.0493C3.10536 16.2638 3 16.5547 3 16.858C3.00146 17.1607 3.1063 17.4507 3.29213 17.6662Z" fill="#171717"/>
</svg>
