<svg width="24" height="24" viewBox="0 0 24 24" fill="none" xmlns="http://www.w3.org/2000/svg">
<path fill-rule="evenodd" clip-rule="evenodd" d="M11.9999 7.64957C9.59719 7.64957 7.64941 9.59734 7.64941 12C7.64941 14.4028 9.59719 16.3505 11.9999 16.3505C14.4026 16.3505 16.3504 14.4028 16.3504 12C16.3504 9.59734 14.4026 7.64957 11.9999 7.64957ZM9.14941 12C9.14941 10.4258 10.4256 9.14957 11.9999 9.14957C13.5742 9.14957 14.8504 10.4258 14.8504 12C14.8504 13.5743 13.5742 14.8505 11.9999 14.8505C10.4256 14.8505 9.14941 13.5743 9.14941 12Z" fill="#171717"/>
<path fill-rule="evenodd" clip-rule="evenodd" d="M10.0271 2.8543C9.51184 2.54498 8.86917 2.54022 8.34942 2.84188L5.8939 4.26704C5.3766 4.56727 5.06226 5.12393 5.07233 5.72196L5.0993 7.32499C5.1025 7.5154 5.05388 7.70309 4.95862 7.86799L4.90022 7.96909C4.80491 8.13408 4.66652 8.27003 4.49987 8.36239L3.10028 9.13799C2.57439 9.42942 2.24864 9.98382 2.25 10.5851L2.25645 13.4221C2.25781 14.0197 2.58215 14.5698 3.10437 14.8603L4.49723 15.6352C4.66446 15.7282 4.80309 15.8652 4.89815 16.0312L4.96073 16.1406C5.05464 16.3046 5.10253 16.491 5.09933 16.68L5.07239 18.2761C5.06226 18.876 5.37855 19.4341 5.8984 19.7336L8.36169 21.1531C8.8802 21.4519 9.51984 21.4466 10.0333 21.1391L11.4006 20.3204C11.5637 20.2228 11.7501 20.1712 11.9402 20.1712H12.0587C12.2492 20.1712 12.436 20.223 12.5993 20.321L13.9729 21.1457C14.4882 21.455 15.1308 21.4598 15.6506 21.1581L18.1061 19.7329C18.6234 19.4327 18.9377 18.8761 18.9277 18.278L18.9007 16.675C18.8975 16.4846 18.9461 16.2969 19.0414 16.132L19.0998 16.0309C19.1951 15.8659 19.3335 15.7299 19.5001 15.6376L20.8997 14.862C21.4256 14.5706 21.7514 14.0162 21.75 13.4149L21.7436 10.5779C21.7422 9.98032 21.4179 9.43016 20.8956 9.13965L19.4994 8.36293C19.3334 8.27058 19.1956 8.13495 19.1006 7.97047L19.0414 7.86799C18.9461 7.70309 18.8975 7.5154 18.9007 7.32499L18.9276 5.72384C18.9377 5.12398 18.6215 4.5659 18.1016 4.26635L15.6383 2.84686C15.1198 2.54807 14.4802 2.55342 13.9667 2.86085L12.5994 3.67959C12.4363 3.77721 12.2499 3.82877 12.0598 3.82877H11.9413C11.7508 3.82877 11.564 3.77699 11.4007 3.67896L10.0271 2.8543ZM9.10237 4.13921C9.14966 4.11177 9.20812 4.1122 9.255 4.14034L10.6286 4.965C11.0251 5.20303 11.4789 5.32877 11.9413 5.32877H12.0598C12.5213 5.32877 12.9741 5.20357 13.3699 4.96652L14.7373 4.14779C14.784 4.11982 14.8422 4.11933 14.8894 4.14652L17.3527 5.56601C17.4 5.59326 17.4288 5.64403 17.4279 5.6986L17.4009 7.29976C17.3931 7.7621 17.5112 8.21786 17.7425 8.61827L17.8017 8.72075C18.0324 9.12016 18.3671 9.44951 18.7702 9.67375L20.1664 10.4505C20.2139 10.4769 20.2434 10.5269 20.2436 10.5813L20.25 13.4183C20.2501 13.473 20.2205 13.5235 20.1726 13.55L18.7731 14.3256C18.3684 14.5498 18.0323 14.88 17.8009 15.2806L17.7425 15.3817C17.5112 15.7821 17.3931 16.2379 17.4009 16.7002L17.4279 18.3033C17.4288 18.3577 17.4002 18.4083 17.3531 18.4356L14.8976 19.8608C14.8503 19.8882 14.7919 19.8878 14.745 19.8596L13.3714 19.035C12.9749 18.797 12.5211 18.6712 12.0587 18.6712H11.9402C11.4787 18.6712 11.0259 18.7964 10.6301 19.0335L9.26269 19.8522C9.21599 19.8802 9.15779 19.8807 9.11062 19.8535L6.64732 18.434C6.60003 18.4067 6.57126 18.356 6.57218 18.3014L6.59912 16.7054C6.60687 16.2464 6.49059 15.7938 6.26255 15.3954L6.19997 15.2861C5.96914 14.8828 5.63251 14.5503 5.22645 14.3244L3.83359 13.5495C3.78607 13.5231 3.75657 13.473 3.75644 13.4187L3.75 10.5817C3.74988 10.527 3.77951 10.4765 3.82735 10.45L5.22694 9.6744C5.63162 9.45014 5.96767 9.12001 6.19909 8.71939L6.25749 8.61827C6.48879 8.21787 6.60687 7.7621 6.59909 7.29976L6.57211 5.69673C6.5712 5.64232 6.5998 5.59168 6.64686 5.56436L9.10237 4.13921Z" fill="#171717"/>
</svg>
