<svg width="24" height="24" viewBox="0 0 24 24" fill="none" xmlns="http://www.w3.org/2000/svg"><path d="M9.260 4.044 C 7.282 4.252,5.463 5.316,4.292 6.952 C 3.998 7.362,3.616 8.084,3.440 8.561 C 2.200 11.921,3.676 15.657,6.875 17.258 C 9.136 18.390,11.834 18.212,13.916 16.794 C 14.121 16.654,14.314 16.522,14.344 16.500 C 14.387 16.470,14.883 16.944,16.510 18.567 C 18.402 20.456,18.638 20.679,18.795 20.720 C 19.366 20.870,19.870 20.366,19.720 19.795 C 19.679 19.638,19.456 19.402,17.567 17.510 C 15.944 15.883,15.470 15.387,15.500 15.344 C 16.537 13.894,17.000 12.553,17.000 11.000 C 17.000 6.857,13.388 3.611,9.260 4.044 M10.923 5.583 C 13.201 5.966,15.034 7.799,15.417 10.077 C 15.499 10.565,15.499 11.435,15.417 11.923 C 15.130 13.631,14.011 15.141,12.458 15.914 C 11.667 16.307,10.885 16.491,10.000 16.491 C 8.536 16.491,7.207 15.947,6.158 14.920 C 5.336 14.115,4.771 13.038,4.583 11.923 C 4.501 11.435,4.501 10.565,4.583 10.077 C 4.766 8.988,5.326 7.907,6.116 7.116 C 6.899 6.334,7.975 5.773,9.060 5.583 C 9.506 5.505,10.458 5.505,10.923 5.583 " fill="#222222" stroke="none" fill-rule="evenodd"></path></svg>